<svg width="32" height="32" viewBox="0 0 32 32" fill="none" xmlns="http://www.w3.org/2000/svg">
<g clip-path="url(#clip0_1:79)">
<path d="M20.9982 17.6417V12.3123H20.0324L15.9772 17.694L16.0819 18.2235C16.0975 18.2894 16.1333 18.3447 16.1895 18.3893C16.2458 18.434 16.3127 18.4562 16.3903 18.4562H20.0848V20.6497H20.9982V18.4563H22.0338C22.1113 18.4563 22.1687 18.4349 22.2055 18.3923C22.2423 18.3497 22.2608 18.2974 22.2608 18.2352V17.6417H20.9982ZM20.0934 13.8774C20.0876 13.9937 20.0847 14.1024 20.0847 14.2033V17.6418H17.1L20.1312 13.5167C20.1119 13.6408 20.0992 13.7611 20.0934 13.8774Z" fill="white"/>
<path d="M15.0631 19.7658C14.9972 19.7 14.9079 19.6669 14.7955 19.6669H12.0028C11.8554 19.6669 11.7021 19.6796 11.5431 19.7047C11.3842 19.7299 11.2271 19.7639 11.0719 19.8066L13.2653 17.5608C13.498 17.3241 13.7181 17.0924 13.9257 16.8655C14.1332 16.6386 14.3165 16.404 14.4755 16.1615C14.6344 15.919 14.7606 15.6659 14.8537 15.4022C14.9467 15.1385 14.9933 14.8514 14.9933 14.5411C14.9933 14.1765 14.9293 13.8506 14.8013 13.5637C14.6733 13.2767 14.4978 13.0332 14.2747 12.8335C14.0517 12.6338 13.787 12.4815 13.4806 12.3768C13.1741 12.2721 12.8445 12.2197 12.4915 12.2197C12.1347 12.2197 11.8021 12.2711 11.4937 12.3739C11.1853 12.4768 10.9118 12.627 10.6733 12.8248C10.4347 13.0227 10.2379 13.268 10.0827 13.5609C9.92751 13.8536 9.82278 14.1903 9.76848 14.5703L10.3096 14.6634C10.3367 14.6673 10.3609 14.6703 10.3823 14.6721C10.4037 14.674 10.424 14.675 10.4434 14.675C10.5442 14.675 10.6257 14.6498 10.6878 14.5994C10.7499 14.549 10.7964 14.4675 10.8274 14.355C10.8663 14.1728 10.9331 14.0059 11.0281 13.8547C11.123 13.7034 11.2394 13.5725 11.3772 13.462C11.5149 13.3514 11.6729 13.2651 11.8514 13.2031C12.0299 13.141 12.2238 13.11 12.4332 13.11C12.6427 13.11 12.8386 13.1401 13.0209 13.2002C13.2031 13.2602 13.3622 13.3504 13.498 13.4707C13.6337 13.591 13.7405 13.7431 13.818 13.9274C13.8955 14.1117 13.9343 14.3259 13.9343 14.5703C13.9343 14.8147 13.8994 15.0445 13.8296 15.2597C13.7598 15.475 13.6599 15.6873 13.53 15.8967C13.4001 16.1062 13.2439 16.3146 13.0616 16.5222C12.8794 16.7298 12.6776 16.9459 12.4565 17.1709L9.78599 19.8531C9.72007 19.919 9.67254 19.9908 9.64347 20.0684C9.6144 20.1459 9.59984 20.2216 9.59984 20.2953V20.6502H15.162V20.0218C15.162 19.9171 15.129 19.8317 15.0631 19.7658Z" fill="white"/>
<path d="M29.4293 11.8571C29.3057 11.5607 28.965 11.4204 28.6683 11.5442C28.3717 11.6679 28.2317 12.0086 28.3554 12.3052C29.0365 13.9373 29.3818 15.6697 29.3818 17.4543C29.3818 24.833 23.3787 30.8361 16 30.8361C8.62129 30.8361 2.61819 24.833 2.61819 17.4543C2.61819 10.0755 8.62129 4.07245 16 4.07245C17.3445 4.07245 18.6696 4.27273 19.9415 4.66419L16.8727 6.4359C16.5944 6.59656 16.4991 6.95236 16.6598 7.23062C16.7675 7.41728 16.963 7.52169 17.1642 7.52162C17.2629 7.52162 17.3629 7.49645 17.4545 7.44358L21.4855 5.1163C21.7638 4.95564 21.8591 4.59984 21.6984 4.32158L19.3712 0.290713C19.2107 0.0124542 18.8547 -0.0828521 18.5765 0.0778125C18.2982 0.238477 18.2029 0.594275 18.3636 0.872534L19.8348 3.42082C18.5902 3.08147 17.3033 2.90887 16.0001 2.90887C7.97964 2.90887 1.45461 9.43396 1.45461 17.4543C1.45461 25.4747 7.97958 31.9998 16.0001 31.9998C24.0205 31.9998 30.5454 25.4747 30.5454 17.4543C30.5454 15.5151 30.1699 13.6319 29.4293 11.8571Z" fill="white"/>
</g>
<defs>
<clipPath id="clip0_1:79">
<rect width="32" height="32" fill="white"/>
</clipPath>
</defs>
</svg>
