<svg width="44" height="44" viewBox="0 0 44 44" fill="none" xmlns="http://www.w3.org/2000/svg">
<g clip-path="url(#clip0_1:531)">
<path d="M42.631 1.36881C41.748 0.485719 40.5729 0 39.3225 0C39.3221 0 39.3221 0 39.3221 0C38.0708 0 36.8949 0.486234 36.0115 1.37002L29.3436 8.03722L7.61994 2.6064C7.30189 2.52828 6.96373 2.62015 6.73101 2.8527L3.42224 6.16146C3.20654 6.37673 3.10969 6.68387 3.16176 6.98414C3.21436 7.28441 3.40944 7.54033 3.68555 7.67009L21.3823 15.9984L13.4891 23.8916L2.95148 25.4262C2.75176 25.4555 2.56708 25.5483 2.42451 25.6908L0.27332 27.8416C0.0402573 28.0747 -0.0529849 28.4133 0.0278823 28.7328C0.108749 29.0527 0.351953 29.3063 0.667687 29.4005L9.86841 32.1422L11.654 33.9273L14.6027 43.3437C14.7005 43.6562 14.9546 43.8949 15.2723 43.973C15.3463 43.9913 15.4213 44 15.4958 44C15.7412 44 15.9802 43.9036 16.1576 43.7258L18.3083 41.5746C18.4509 41.432 18.5437 41.2473 18.5729 41.0476L20.1076 30.5101L27.9473 22.67L35.6619 39.6405C35.789 39.9202 36.0448 40.1194 36.347 40.1743C36.6468 40.2287 36.9589 40.1323 37.1756 39.9151L40.4848 36.6059C40.7129 36.3778 40.8075 36.0483 40.7353 35.7334L35.8881 14.7297L42.6297 7.98798C44.4549 6.16258 44.4558 3.19309 42.631 1.36881ZM41.306 6.6642L34.1975 13.7727C33.9694 14.0008 33.8748 14.3302 33.9471 14.6451L38.7942 35.6488L36.8071 37.6364L29.0925 20.6659C28.9654 20.3862 28.7096 20.187 28.4075 20.1321C28.1068 20.0772 27.7955 20.1741 27.5788 20.3912L18.5642 29.4059C18.4216 29.5485 18.3288 29.7332 18.2996 29.9329L16.7649 40.4704L15.9272 41.309L13.3715 33.1485C13.3267 33.0046 13.2472 32.8734 13.1402 32.7664L11.0247 30.6509C10.915 30.5407 10.7793 30.4599 10.6303 30.4155L2.70741 28.055L3.5282 27.2342L14.0662 25.6995C14.2659 25.6703 14.4506 25.5775 14.5932 25.4349L23.6476 16.3805C23.8633 16.1652 23.9603 15.8581 23.9081 15.5579C23.8555 15.2576 23.6599 15.0017 23.3843 14.8719L5.68764 6.54354L7.67984 4.55091L29.4034 9.98173C29.7233 10.0617 30.0597 9.96849 30.2923 9.73543L37.335 2.6932C37.8651 2.16305 38.5708 1.87103 39.3221 1.87103C40.073 1.87103 40.7782 2.16262 41.3074 2.69182C42.4019 3.78675 42.4015 5.56866 41.306 6.6642Z" fill="white"/>
</g>
<defs>
<clipPath id="clip0_1:531">
<rect width="44" height="44" fill="white"/>
</clipPath>
</defs>
</svg>
