<svg width="44" height="44" viewBox="0 0 44 44" fill="none" xmlns="http://www.w3.org/2000/svg">
<path d="M41.7676 42.5357H40.3033V9.59011C40.3033 9.18577 39.9754 8.85801 39.5712 8.85801H37.3748V5.19733C37.3748 4.79299 37.047 4.46523 36.6427 4.46523H31.5178V0H30.0535V4.46523H24.9286C24.5243 4.46523 24.1965 4.79308 24.1965 5.19733V8.85792H22.0002C21.5959 8.85792 21.2681 9.18577 21.2681 9.59002V16.9113H4.4292C4.02486 16.9113 3.6971 17.2391 3.6971 17.6434V42.5356H2.23289C1.82856 42.5356 1.50079 42.8635 1.50079 43.2677C1.50079 43.672 1.82856 44 2.23289 44H4.42929H22.0002H39.5713H41.7677C42.172 44 42.4998 43.6721 42.4998 43.2679C42.4998 42.8636 42.1719 42.5357 41.7676 42.5357ZM21.2681 42.5357H5.16139V18.3756H21.2681V42.5357ZM25.6608 5.92952H35.9106V8.85801H25.6608V5.92952ZM38.8391 42.5357H22.7323V17.6435V10.3222H24.9287H36.6427H38.8391V42.5357Z" fill="white"/>
<path d="M29.3208 11.7856H24.9281C24.5237 11.7856 24.196 12.1135 24.196 12.5177V19.839C24.196 20.2434 24.5238 20.5711 24.9281 20.5711H29.3208C29.7252 20.5711 30.0529 20.2433 30.0529 19.839V12.5177C30.0529 12.1134 29.7252 11.7856 29.3208 11.7856ZM28.5886 19.1069H25.6602V13.2498H28.5886V19.1069Z" fill="white"/>
<path d="M36.6416 11.7856H32.2489C31.8445 11.7856 31.5168 12.1135 31.5168 12.5177V19.839C31.5168 20.2434 31.8446 20.5711 32.2489 20.5711H36.6416C37.046 20.5711 37.3737 20.2433 37.3737 19.839V12.5177C37.3737 12.1134 37.0459 11.7856 36.6416 11.7856ZM35.9094 19.1069H32.981V13.2498H35.9094V19.1069Z" fill="white"/>
<path d="M29.3202 22.0352H24.9274C24.5231 22.0352 24.1953 22.363 24.1953 22.7673V30.0885C24.1953 30.4929 24.5232 30.8206 24.9274 30.8206H29.3202C29.7245 30.8206 30.0523 30.4928 30.0523 30.0885V22.7673C30.0523 22.3629 29.7245 22.0352 29.3202 22.0352ZM28.588 29.3563H25.6595V23.4994H28.588V29.3563Z" fill="white"/>
<path d="M36.6425 22.0352H32.2497C31.8453 22.0352 31.5176 22.363 31.5176 22.7673V30.0885C31.5176 30.4929 31.8454 30.8206 32.2497 30.8206H36.6425C37.0468 30.8206 37.3746 30.4928 37.3746 30.0885V22.7673C37.3746 22.3629 37.0467 22.0352 36.6425 22.0352ZM35.9103 29.3563H32.9818V23.4994H35.9103V29.3563Z" fill="white"/>
<path d="M29.3202 32.2852H24.9274C24.5231 32.2852 24.1953 32.613 24.1953 33.0173V40.3385C24.1953 40.7429 24.5232 41.0706 24.9274 41.0706H29.3202C29.7245 41.0706 30.0523 40.7428 30.0523 40.3385V33.0173C30.0523 32.6129 29.7245 32.2852 29.3202 32.2852ZM28.588 39.6063H25.6595V33.7494H28.588V39.6063Z" fill="white"/>
<path d="M36.6425 32.2852H32.2497C31.8453 32.2852 31.5176 32.613 31.5176 33.0173V40.3385C31.5176 40.7429 31.8454 41.0706 32.2497 41.0706H36.6425C37.0468 41.0706 37.3746 40.7428 37.3746 40.3385V33.0173C37.3746 32.6129 37.0467 32.2852 36.6425 32.2852ZM35.9103 39.6063H32.9818V33.7494H35.9103V39.6063Z" fill="white"/>
<path d="M11.7495 31.5542H7.35677C6.95243 31.5542 6.62466 31.8821 6.62466 32.2863V39.6076C6.62466 40.0119 6.95243 40.3397 7.35677 40.3397H11.7495C12.1539 40.3397 12.4816 40.0118 12.4816 39.6076V32.2863C12.4816 31.8821 12.1539 31.5542 11.7495 31.5542ZM11.0174 38.8755H8.08895V33.0185H11.0174V38.8755Z" fill="white"/>
<path d="M19.0729 31.5542H14.6801C14.2758 31.5542 13.948 31.8821 13.948 32.2863V39.6076C13.948 40.0119 14.2759 40.3397 14.6801 40.3397H19.0729C19.4772 40.3397 19.805 40.0118 19.805 39.6076V32.2863C19.805 31.8821 19.4772 31.5542 19.0729 31.5542ZM18.3408 38.8755H15.4123V33.0185H18.3408V38.8755Z" fill="white"/>
<path d="M11.7499 20.5703H7.3571C6.95277 20.5703 6.625 20.8982 6.625 21.3024V28.6237C6.625 29.028 6.95277 29.3558 7.3571 29.3558H11.7499C12.1542 29.3558 12.482 29.028 12.482 28.6237V21.3024C12.482 20.8982 12.1542 20.5703 11.7499 20.5703ZM11.0178 27.8916H8.08929V22.0346H11.0178V27.8916Z" fill="white"/>
<path d="M19.0721 20.5703H14.6794C14.275 20.5703 13.9473 20.8982 13.9473 21.3024V28.6237C13.9473 29.028 14.2751 29.3558 14.6794 29.3558H19.0721C19.4765 29.3558 19.8043 29.028 19.8043 28.6237V21.3024C19.8043 20.8982 19.4765 20.5703 19.0721 20.5703ZM18.34 27.8916H15.4116V22.0346H18.34V27.8916Z" fill="white"/>
</svg>
