<svg width="32" height="32" viewBox="0 0 32 32" fill="none" xmlns="http://www.w3.org/2000/svg">
<g clip-path="url(#clip0_1:315)">
<path d="M29.9688 3.78652L16.1649 0.021834C16.0564 -0.00760351 15.9431 -0.00760351 15.8346 0.021834L2.03068 3.78652C1.73349 3.86771 1.53924 4.15233 1.57206 4.45871L3.45443 22.0273C3.47218 22.1952 3.55706 22.3484 3.68943 22.4529L15.611 31.8646C15.7249 31.9548 15.8622 31.9998 15.9997 31.9998C16.1373 31.9998 16.2746 31.9547 16.3886 31.8646L28.3101 22.4529C28.4425 22.3484 28.5274 22.1952 28.5451 22.0273L30.4275 4.45871C30.4602 4.15233 30.266 3.86771 29.9688 3.78652ZM27.3254 21.6315L15.9997 30.573L4.67406 21.6315L2.87656 4.85671L15.9997 1.27765L29.1229 4.85671L27.3254 21.6315Z" fill="white"/>
<path d="M26.8322 6.69621L16.1655 3.78721C16.0571 3.75778 15.9437 3.75778 15.8352 3.78721L5.16856 6.69621C4.87137 6.7774 4.67712 7.06203 4.70993 7.3684L6.16462 20.9444C6.18237 21.1123 6.26725 21.2655 6.39962 21.37L15.6116 28.6427C15.7256 28.7327 15.8628 28.7778 16.0004 28.7778C16.1377 28.7778 16.2752 28.7327 16.3892 28.6427L25.6016 21.37C25.7339 21.2655 25.8188 21.1123 25.8366 20.9444L27.2909 7.3684C27.3236 7.06203 27.1294 6.7774 26.8322 6.69621ZM24.6168 20.5486L16.0004 27.351L7.38425 20.5486L6.01443 7.7664L16.0004 5.04303L25.9863 7.76634L24.6168 20.5486Z" fill="white"/>
</g>
<defs>
<clipPath id="clip0_1:315">
<rect width="32" height="32" fill="white"/>
</clipPath>
</defs>
</svg>
