<svg width="32" height="32" viewBox="0 0 32 32" fill="none" xmlns="http://www.w3.org/2000/svg">
<path d="M28.7957 31.2825L25.5957 5.0425C25.5565 4.72144 25.2838 4.48 24.9604 4.48H22.3589C22.0428 1.958 19.8866 0 17.2804 0C16.7217 0 16.1841 0.0911875 15.6804 0.257437C15.1766 0.0911875 14.639 0 14.0804 0C11.4741 0 9.31792 1.958 9.00179 4.48H5.76036C5.42505 4.48 5.14661 4.73881 5.12205 5.07325L3.20205 31.3132C3.18905 31.4907 3.25048 31.6654 3.37161 31.7957C3.49273 31.926 3.66255 32 3.84036 32H28.1604C28.3436 32 28.518 31.9215 28.6395 31.7843C28.761 31.6471 28.8179 31.4644 28.7957 31.2825ZM21.066 4.48H19.1589C19.0002 3.21369 18.3779 2.09006 17.4669 1.28475C19.2824 1.37206 20.7704 2.72606 21.066 4.48ZM15.6804 1.63056C16.8147 2.15275 17.6522 3.21144 17.866 4.48H13.4947C13.7085 3.2115 14.546 2.15275 15.6804 1.63056ZM13.8937 1.28475C12.9827 2.09013 12.3605 3.21369 12.2017 4.48H10.2947C10.5904 2.72606 12.0783 1.37206 13.8937 1.28475ZM4.52892 30.72L6.35517 5.76H7.72542L9.5518 30.72H4.52892ZM10.8352 30.72L9.00886 5.76H24.3936L27.4375 30.72H10.8352Z" fill="white"/>
</svg>
