<svg width="32" height="32" viewBox="0 0 32 32" fill="none" xmlns="http://www.w3.org/2000/svg">
<g clip-path="url(#clip0_1:325)">
<path d="M31.277 23.4276C31.1316 23.107 30.7469 22.9665 30.4229 23.0987C30.4121 23.1038 29.1671 23.5841 25.6749 22.4206C23.0221 21.5366 21.8797 22.2961 20.8732 22.9665C20.289 23.3563 19.7838 23.693 18.9367 23.693C17.7561 23.693 17.0201 23.3983 16.24 23.0865C15.3802 22.7426 14.4904 22.3866 13.0584 22.3866C11.9556 22.3866 11.1462 22.7032 10.4324 22.9826C9.29006 23.4289 8.30462 23.8141 6.0805 23.0738C1.90137 21.6801 0.350185 23.068 0.186872 23.2313C-0.0625025 23.48 -0.0606275 23.8743 0.179872 24.132C0.420997 24.3888 0.830497 24.3998 1.09518 24.1696C1.10731 24.1594 2.27712 23.182 5.66718 24.3125C8.341 25.2033 9.70531 24.6696 10.9083 24.1996C11.5736 23.9385 12.2018 23.693 13.0584 23.693C14.2391 23.693 14.9751 23.9876 15.7552 24.2997C16.6151 24.6433 17.5048 24.9993 18.9367 24.9993C20.1792 24.9993 20.9332 24.4968 21.5978 24.0535C22.4997 23.4521 23.2116 22.9767 25.2616 23.6593C29.2359 24.9841 30.7272 24.4073 30.9855 24.2774C31.3 24.1203 31.4224 23.7473 31.277 23.4276Z" fill="white"/>
<path d="M31.277 26.6938C31.1316 26.3731 30.7469 26.2333 30.4229 26.3649C30.4121 26.3699 29.1671 26.8496 25.6749 25.6868C23.0221 24.8021 21.8797 25.5623 20.8732 26.2326C20.289 26.6225 19.7838 26.9591 18.9367 26.9591C17.7561 26.9591 17.0201 26.6644 16.24 26.3527C15.3802 26.0087 14.4904 25.6528 13.0584 25.6528C11.9556 25.6528 11.1462 25.9694 10.4324 26.2487C9.29006 26.695 8.30462 27.0809 6.0805 26.3399C1.90137 24.9467 0.350185 26.3342 0.186872 26.4975C-0.0625025 26.7461 -0.0606275 27.1404 0.179872 27.3981C0.420997 27.655 0.830497 27.666 1.09518 27.4357C1.10731 27.4262 2.27712 26.4489 5.66718 27.5786C8.341 28.4695 9.70531 27.9358 10.9083 27.4657C11.5736 27.2047 12.2018 26.9591 13.0584 26.9591C14.2391 26.9591 14.9751 27.2538 15.7552 27.5659C16.6151 27.9095 17.5048 28.2654 18.9367 28.2654C20.1792 28.2654 20.9332 27.763 21.5978 27.3197C22.4997 26.7182 23.2116 26.2435 25.2616 26.9255C29.2359 28.2503 30.7272 27.6729 30.9855 27.5435C31.3 27.3865 31.4224 27.0135 31.277 26.6938Z" fill="white"/>
<path d="M31.277 29.9582C31.1316 29.6382 30.7469 29.4965 30.4229 29.6292C30.4121 29.6343 29.1671 30.1146 25.6749 28.9512C23.0221 28.0671 21.8797 28.8267 20.8732 29.497C20.289 29.8868 19.7838 30.2235 18.9367 30.2235C17.7561 30.2235 17.0201 29.9288 16.24 29.617C15.3802 29.2731 14.4904 28.9172 13.0584 28.9172C11.9556 28.9172 11.1462 29.2337 10.4324 29.5131C9.29006 29.9594 8.30462 30.3447 6.0805 29.6043C1.90137 28.2106 0.350185 29.5985 0.186872 29.7618C-0.0625025 30.0105 -0.0606275 30.4048 0.179872 30.6625C0.420997 30.9193 0.830497 30.9303 1.09518 30.7001C1.10731 30.6899 2.27712 29.7125 5.66718 30.843C8.341 31.7338 9.70531 31.1995 10.9083 30.7301C11.5736 30.469 12.2018 30.2235 13.0584 30.2235C14.2391 30.2235 14.9751 30.5182 15.7552 30.8302C16.6151 31.1738 17.5048 31.5298 18.9367 31.5298C20.1792 31.5298 20.9332 31.0273 21.5978 30.584C22.4997 29.9826 23.2116 29.5072 25.2616 30.1898C29.2359 31.5153 30.7272 30.9372 30.9855 30.8079C31.3 30.6508 31.4224 30.2778 31.277 29.9582Z" fill="white"/>
<path d="M16.3252 5.04297C10.2026 5.04297 5.22168 10.0238 5.22168 16.1465C5.22168 17.7593 5.56037 19.3153 6.22755 20.7708C6.33793 21.0105 6.57455 21.1517 6.82199 21.1517C6.91255 21.1517 7.00568 21.1325 7.09374 21.0922C7.42162 20.9416 7.56574 20.5538 7.41518 20.226C6.82649 18.9427 6.52793 17.5701 6.52793 16.1464C6.52793 10.7443 10.9226 6.34922 16.3251 6.34922C21.7276 6.34922 26.1223 10.7443 26.1223 16.1464C26.1223 17.3966 25.8901 18.6148 25.4322 19.7667C25.2982 20.1018 25.4622 20.4811 25.7977 20.6144C26.1326 20.7504 26.5127 20.5851 26.6454 20.249C27.1652 18.9435 27.4286 17.5628 27.4286 16.1465C27.4287 10.0238 22.4478 5.04297 16.3252 5.04297Z" fill="white"/>
<path d="M16.4012 0.46875C16.0402 0.46875 15.748 0.761188 15.748 1.12188V3.08131C15.748 3.442 16.0402 3.73444 16.4012 3.73444C16.7622 3.73444 17.0543 3.442 17.0543 3.08131V1.12188C17.0543 0.761188 16.7622 0.46875 16.4012 0.46875Z" fill="white"/>
<path d="M27.4082 5.05951C27.1531 4.80438 26.7398 4.80438 26.4847 5.05951L25.0993 6.4452C24.8442 6.70032 24.8442 7.11395 25.0993 7.36876C25.2269 7.49632 25.394 7.56013 25.5611 7.56013C25.7282 7.56013 25.8954 7.49632 26.0229 7.36876L27.4083 5.98307C27.6634 5.72801 27.6634 5.31438 27.4082 5.05951Z" fill="white"/>
<path d="M31.3479 15.4805H29.3885C29.0275 15.4805 28.7354 15.7729 28.7354 16.1336C28.7354 16.4943 29.0275 16.7867 29.3885 16.7867H31.3479C31.7089 16.7867 32.001 16.4943 32.001 16.1336C32.001 15.7729 31.7089 15.4805 31.3479 15.4805Z" fill="white"/>
<path d="M3.261 15.4805H1.30156C0.940562 15.4805 0.648438 15.7729 0.648438 16.1336C0.648438 16.4943 0.940562 16.7867 1.30156 16.7867H3.261C3.622 16.7867 3.91412 16.4943 3.91412 16.1336C3.91419 15.7729 3.62206 15.4805 3.261 15.4805Z" fill="white"/>
<path d="M7.54844 6.44526L6.16306 5.05951C5.90794 4.80438 5.49463 4.80438 5.23944 5.05951C4.98431 5.31432 4.98431 5.72795 5.23944 5.98313L6.62481 7.36882C6.75238 7.49638 6.9195 7.56019 7.08663 7.56019C7.25375 7.56019 7.42088 7.49638 7.54844 7.36882C7.80356 7.11401 7.80356 6.70038 7.54844 6.44526Z" fill="white"/>
</g>
<defs>
<clipPath id="clip0_1:325">
<rect width="32" height="32" fill="white"/>
</clipPath>
</defs>
</svg>
