<svg width="44" height="44" viewBox="0 0 44 44" fill="none" xmlns="http://www.w3.org/2000/svg">
<g clip-path="url(#clip0_1:577)">
<path d="M43.006 32.2133C42.806 31.7724 42.2771 31.5793 41.8316 31.761C41.8168 31.7681 40.1048 32.4284 35.303 30.8287C31.6555 29.6131 30.0847 30.6575 28.7008 31.5792C27.8975 32.1153 27.2028 32.5781 26.0381 32.5781C24.4148 32.5781 23.4027 32.1729 22.3301 31.7443C21.1479 31.2714 19.9244 30.7819 17.9554 30.7819C16.4391 30.7819 15.3261 31.2172 14.3447 31.6014C12.7739 32.215 11.419 32.7448 8.36078 31.7267C2.61448 29.8104 0.4816 31.7188 0.257045 31.9434C-0.0858456 32.2852 -0.0832675 32.8274 0.24742 33.1817C0.578967 33.5349 1.14203 33.5501 1.50597 33.2335C1.52265 33.2195 3.13114 31.8756 7.79247 33.4299C11.469 34.6549 13.3449 33.9211 14.999 33.2747C15.9137 32.9158 16.7776 32.5781 17.9554 32.5781C19.5788 32.5781 20.5909 32.9833 21.6636 33.4124C22.8458 33.8849 24.0692 34.3743 26.0381 34.3743C27.7466 34.3743 28.7832 33.6834 29.6971 33.0739C30.9372 32.2469 31.916 31.5933 34.7347 32.5319C40.1995 34.3535 42.25 33.5604 42.6052 33.3817C43.0376 33.1658 43.2059 32.6529 43.006 32.2133Z" fill="white"/>
<path d="M43.0063 36.7054C42.8064 36.2645 42.2775 36.0722 41.832 36.2531C41.8171 36.2601 40.1052 36.9196 35.3034 35.3208C31.6559 34.1043 30.0851 35.1496 28.7012 36.0713C27.8978 36.6073 27.2032 37.0702 26.0385 37.0702C24.4151 37.0702 23.403 36.665 22.3305 36.2364C21.1482 35.7634 19.9248 35.274 17.9558 35.274C16.4394 35.274 15.3265 35.7093 14.3451 36.0934C12.7743 36.7071 11.4193 37.2377 8.36115 36.2188C2.61485 34.3032 0.481966 36.2109 0.257411 36.4355C-0.0854794 36.7773 -0.0829013 37.3195 0.247786 37.6738C0.579333 38.027 1.1424 38.0422 1.50634 37.7256C1.52301 37.7124 3.1315 36.3686 7.79284 37.922C11.4693 39.147 13.3453 38.4132 14.9994 37.7668C15.9141 37.4079 16.778 37.0702 17.9558 37.0702C19.5792 37.0702 20.5913 37.4754 21.6639 37.9045C22.8462 38.377 24.0696 38.8664 26.0385 38.8664C27.7469 38.8664 28.7836 38.1755 29.6975 37.566C30.9375 36.739 31.9164 36.0862 34.7351 37.024C40.1999 38.8456 42.2503 38.0516 42.6055 37.8738C43.038 37.6578 43.2063 37.1451 43.0063 36.7054Z" fill="white"/>
<path d="M43.006 41.1933C42.806 40.7533 42.2771 40.5586 41.8316 40.741C41.8168 40.7481 40.1048 41.4084 35.303 39.8087C31.6555 38.5931 30.0847 39.6375 28.7008 40.5592C27.8975 41.0952 27.2028 41.5581 26.0381 41.5581C24.4148 41.5581 23.4027 41.1529 22.3301 40.7242C21.1479 40.2513 19.9244 39.7619 17.9554 39.7619C16.4391 39.7619 15.3261 40.1972 14.3447 40.5813C12.7739 41.195 11.419 41.7247 8.36078 40.7067C2.61448 38.7904 0.4816 40.6988 0.257045 40.9234C-0.0858456 41.2652 -0.0832675 41.8074 0.24742 42.1617C0.578967 42.5149 1.14203 42.53 1.50597 42.2135C1.52265 42.1994 3.13114 40.8556 7.79247 42.4099C11.469 43.6349 13.3449 42.9002 14.999 42.2547C15.9137 41.8957 16.7776 41.5581 17.9554 41.5581C19.5788 41.5581 20.5909 41.9633 21.6636 42.3924C22.8458 42.8649 24.0692 43.3543 26.0381 43.3543C27.7466 43.3543 28.7832 42.6634 29.6971 42.0539C30.9372 41.2269 31.916 40.5733 34.7347 41.5119C40.1995 43.3343 42.25 42.5395 42.6052 42.3617C43.0376 42.1457 43.2059 41.6329 43.006 41.1933Z" fill="white"/>
<path d="M22.447 6.93359C14.0284 6.93359 7.17969 13.7823 7.17969 22.2009C7.17969 24.4185 7.64538 26.5581 8.56277 28.5594C8.71453 28.889 9.03989 29.083 9.38012 29.083C9.50464 29.083 9.63269 29.0567 9.75377 29.0012C10.2046 28.7942 10.4028 28.261 10.1958 27.8102C9.3863 26.0457 8.97578 24.1584 8.97578 22.2008C8.97578 14.7729 15.0185 8.72969 22.4469 8.72969C29.8754 8.72969 35.918 14.7729 35.918 22.2008C35.918 23.9198 35.5988 25.5948 34.9691 27.1788C34.785 27.6395 35.0104 28.161 35.4717 28.3443C35.9321 28.5313 36.4548 28.304 36.6373 27.8418C37.352 26.0468 37.7142 24.1483 37.7142 22.2009C37.7143 13.7823 30.8656 6.93359 22.447 6.93359Z" fill="white"/>
<path d="M22.5504 0.644531C22.054 0.644531 21.6523 1.04663 21.6523 1.54258V4.2368C21.6523 4.73275 22.054 5.13485 22.5504 5.13485C23.0468 5.13485 23.4484 4.73275 23.4484 4.2368V1.54258C23.4484 1.04663 23.0468 0.644531 22.5504 0.644531Z" fill="white"/>
<path d="M37.6859 6.95841C37.3351 6.60761 36.7668 6.60761 36.416 6.95841L34.5111 8.86373C34.1603 9.21453 34.1603 9.78326 34.5111 10.1336C34.6865 10.309 34.9163 10.3968 35.1461 10.3968C35.3759 10.3968 35.6057 10.309 35.7811 10.1336L37.686 8.22831C38.0368 7.8776 38.0368 7.30886 37.6859 6.95841Z" fill="white"/>
<path d="M43.1028 21.2881H40.4085C39.9122 21.2881 39.5105 21.6902 39.5105 22.1861C39.5105 22.6821 39.9122 23.0842 40.4085 23.0842H43.1028C43.5991 23.0842 44.0008 22.6821 44.0008 22.1861C44.0008 21.6902 43.5991 21.2881 43.1028 21.2881Z" fill="white"/>
<path d="M4.484 21.2881H1.78977C1.2934 21.2881 0.891724 21.6902 0.891724 22.1861C0.891724 22.6821 1.2934 23.0842 1.78977 23.0842H4.484C4.98037 23.0842 5.38204 22.6821 5.38204 22.1861C5.38213 21.6902 4.98046 21.2881 4.484 21.2881Z" fill="white"/>
<path d="M10.3794 8.86382L8.47449 6.95841C8.12369 6.60761 7.55539 6.60761 7.2045 6.95841C6.85371 7.30878 6.85371 7.87751 7.2045 8.22839L9.10939 10.1337C9.28479 10.3091 9.51459 10.3969 9.74439 10.3969C9.97418 10.3969 10.204 10.3091 10.3794 10.1337C10.7302 9.78335 10.7302 9.21461 10.3794 8.86382Z" fill="white"/>
</g>
<defs>
<clipPath id="clip0_1:577">
<rect width="44" height="44" fill="white"/>
</clipPath>
</defs>
</svg>
