<svg width="32" height="32" viewBox="0 0 32 32" fill="none" xmlns="http://www.w3.org/2000/svg">
<path d="M31.4182 11.9272H27.8027L29.5386 10.1913C29.6477 10.0821 29.7091 9.93416 29.7091 9.77985C29.7091 9.62554 29.6477 9.4776 29.5386 9.36841L21.7949 1.62479C21.5676 1.39767 21.1991 1.39767 20.9721 1.62479L19.7586 2.83829C19.7529 2.83473 19.7484 2.8301 19.7426 2.82673L15.4854 0.36879C15.3518 0.29154 15.1929 0.270665 15.0439 0.310603C14.8949 0.35054 14.7677 0.44804 14.6906 0.581728L8.22344 11.7832C8.19681 11.8294 8.17969 11.8779 8.16681 11.9271H0.581813C0.2605 11.9271 0 12.1876 0 12.5089V31.1271C0 31.4484 0.2605 31.7089 0.581813 31.7089H31.4182C31.7395 31.7089 32 31.4484 32 31.1271V24.7271V17.7454V12.509C32 12.1877 31.7395 11.9272 31.4182 11.9272ZM21.3835 2.85904L28.3044 9.77985L26.1571 11.9272H12.3154L21.3835 2.85904ZM15.4074 1.66742L18.9083 3.68866L10.6698 11.9272H9.48394L15.4074 1.66742ZM30.8364 24.1453H23.2696C22.309 24.1453 21.5273 23.3634 21.5273 22.4022V20.0701C21.5273 19.109 22.309 18.327 23.2696 18.327H30.8364V24.1453ZM30.8364 17.1635H23.2696C21.6672 17.1635 20.3637 18.4674 20.3637 20.0702V22.4023C20.3637 24.005 21.6672 25.309 23.2696 25.309H30.8364V30.5454H1.16363V13.0908H26.1642C26.2281 13.1139 26.2947 13.1271 26.3617 13.1271C26.4288 13.1271 26.4955 13.1139 26.5594 13.0908H30.8364V17.1635Z" fill="white"/>
<path d="M23.855 22.3978C24.4977 22.3978 25.0187 21.8768 25.0187 21.2342C25.0187 20.5915 24.4977 20.0706 23.855 20.0706C23.2124 20.0706 22.6914 20.5915 22.6914 21.2342C22.6914 21.8768 23.2124 22.3978 23.855 22.3978Z" fill="white"/>
</svg>
