<svg width="32" height="32" viewBox="0 0 32 32" fill="none" xmlns="http://www.w3.org/2000/svg">
<path d="M7.27275 3.63281C4.8665 3.63281 2.90913 5.59144 2.90913 7.99769C2.90913 8.39931 3.23444 8.7255 3.63637 8.7255C4.03837 8.7255 4.36363 8.40025 4.36363 7.99856C4.36363 6.3945 5.66831 5.08956 7.27269 5.08956C8.87712 5.08956 10.1818 6.39 10.1818 7.99406C10.1818 9.59812 8.87706 10.8984 7.27269 10.8984H0.72725C0.325312 10.8984 0 11.2241 0 11.6258C0 12.0274 0.325312 12.353 0.72725 12.353H7.27269C9.67894 12.353 11.6363 10.4004 11.6363 7.99406C11.6364 5.58781 9.679 3.63281 7.27275 3.63281Z" fill="white"/>
<path d="M18.1814 6.54248C15.7751 6.54248 13.8178 8.50111 13.8178 10.9074C13.8178 11.309 14.1431 11.6358 14.545 11.6358C14.947 11.6358 15.2723 11.3102 15.2723 10.9085C15.2723 9.30448 16.5769 7.99948 18.1813 7.99948C19.7858 7.99948 21.0904 9.29979 21.0904 10.9038C21.0904 12.5079 19.7857 13.8082 18.1813 13.8082H10.1813C9.77932 13.8082 9.45407 14.1338 9.45407 14.5354C9.45407 14.937 9.77938 15.2627 10.1813 15.2627H18.1813C20.5876 15.2627 22.5449 13.31 22.5449 10.9037C22.545 8.49748 20.5876 6.54248 18.1814 6.54248Z" fill="white"/>
<path d="M18.1817 19.6289H5.81807C5.41607 19.6289 5.09082 19.9542 5.09082 20.3562C5.09082 20.7581 5.41613 21.0834 5.81807 21.0834H18.1817C19.7861 21.0834 21.0908 22.3929 21.0908 23.9973C21.0908 25.6017 19.7861 26.9087 18.1817 26.9087C16.5773 26.9087 15.2726 25.6052 15.2726 24.0008C15.2726 23.5988 14.9474 23.274 14.5454 23.274C14.1434 23.274 13.8181 23.5997 13.8181 24.0017C13.8181 26.4079 15.7755 28.3655 18.1818 28.3655C20.588 28.3655 22.5454 26.4033 22.5454 23.997C22.5453 21.5909 20.5879 19.6289 18.1817 19.6289Z" fill="white"/>
<path d="M27.6361 9.45312C25.2298 9.45312 23.2725 11.4105 23.2725 13.8167C23.2725 14.2184 23.5978 14.544 23.9997 14.544C24.4017 14.544 24.727 14.2184 24.727 13.8167C24.727 12.2127 26.0316 10.9077 27.636 10.9077C29.2405 10.9077 30.5451 12.2081 30.5451 13.812C30.5451 15.4165 29.2404 16.7164 27.636 16.7164H7.99971C7.59771 16.7164 7.27246 17.0417 7.27246 17.4436C7.27246 17.8455 7.59777 18.1709 7.99971 18.1709H27.6361C30.0423 18.1709 31.9997 16.2182 31.9997 13.8119C31.9997 11.4057 30.0423 9.45312 27.6361 9.45312Z" fill="white"/>
</svg>
